<?xml version="1.0" encoding="UTF-8" standalone="no"?>
<!DOCTYPE svg PUBLIC "-//W3C//DTD SVG 1.1//EN"
 "http://www.w3.org/Graphics/SVG/1.1/DTD/svg11.dtd">
<!-- Generated by graphviz version 2.43.0 (0)
 -->
<!-- Title: astgraph Pages: 1 -->
<svg width="422pt" height="115pt"
 viewBox="0.00 0.00 422.00 115.00" xmlns="http://www.w3.org/2000/svg" xmlns:xlink="http://www.w3.org/1999/xlink">
<g id="graph0" class="graph" transform="scale(1 1) rotate(0) translate(4 111)">
<title>astgraph</title>
<polygon fill="white" stroke="transparent" points="-4,4 -4,-111 418,-111 418,4 -4,4"/>
<!-- node0 -->
<g id="node1" class="node">
<title>node0</title>
<polygon fill="none" stroke="black" points="241.5,-107 172.5,-107 172.5,-86 241.5,-86 241.5,-107"/>
<text text-anchor="middle" x="207" y="-93.4" font-family="Courier,monospace" font-size="12.00">Program</text>
</g>
<!-- node1 -->
<g id="node2" class="node">
<title>node1</title>
<polygon fill="none" stroke="black" points="137.5,-64 60.5,-64 60.5,-43 137.5,-43 137.5,-64"/>
<text text-anchor="middle" x="99" y="-50.4" font-family="Courier,monospace" font-size="12.00">Var Decl</text>
</g>
<!-- node0&#45;&gt;node1 -->
<g id="edge1" class="edge">
<title>node0&#45;&gt;node1</title>
<path fill="none" stroke="black" d="M181.95,-85.99C166.25,-80.03 145.92,-72.31 129.31,-66.01"/>
<polygon fill="black" stroke="black" points="129.58,-64.24 124.29,-64.1 128.34,-67.51 129.58,-64.24"/>
</g>
<!-- node4 -->
<g id="node5" class="node">
<title>node4</title>
<polygon fill="none" stroke="black" points="245.5,-64 168.5,-64 168.5,-43 245.5,-43 245.5,-64"/>
<text text-anchor="middle" x="207" y="-50.4" font-family="Courier,monospace" font-size="12.00">Var Decl</text>
</g>
<!-- node0&#45;&gt;node4 -->
<g id="edge4" class="edge">
<title>node0&#45;&gt;node4</title>
<path fill="none" stroke="black" d="M207,-85.99C207,-81.09 207,-75.01 207,-69.5"/>
<polygon fill="black" stroke="black" points="208.75,-69.24 207,-64.24 205.25,-69.24 208.75,-69.24"/>
</g>
<!-- node7 -->
<g id="node8" class="node">
<title>node7</title>
<polygon fill="none" stroke="black" points="353.5,-64 276.5,-64 276.5,-43 353.5,-43 353.5,-64"/>
<text text-anchor="middle" x="315" y="-50.4" font-family="Courier,monospace" font-size="12.00">Var Decl</text>
</g>
<!-- node0&#45;&gt;node7 -->
<g id="edge7" class="edge">
<title>node0&#45;&gt;node7</title>
<path fill="none" stroke="black" d="M232.05,-85.99C247.75,-80.03 268.08,-72.31 284.69,-66.01"/>
<polygon fill="black" stroke="black" points="285.66,-67.51 289.71,-64.1 284.42,-64.24 285.66,-67.51"/>
</g>
<!-- node2 -->
<g id="node3" class="node">
<title>node2</title>
<polygon fill="none" stroke="black" points="54,-21 0,-21 0,0 54,0 54,-21"/>
<text text-anchor="middle" x="27" y="-7.4" font-family="Courier,monospace" font-size="12.00">a</text>
</g>
<!-- node1&#45;&gt;node2 -->
<g id="edge2" class="edge">
<title>node1&#45;&gt;node2</title>
<path fill="none" stroke="black" d="M82.3,-42.99C72.27,-37.28 59.4,-29.95 48.6,-23.8"/>
<polygon fill="black" stroke="black" points="49.32,-22.2 44.11,-21.24 47.59,-25.24 49.32,-22.2"/>
</g>
<!-- node3 -->
<g id="node4" class="node">
<title>node3</title>
<polygon fill="none" stroke="black" points="126,-21 72,-21 72,0 126,0 126,-21"/>
<text text-anchor="middle" x="99" y="-7.4" font-family="Courier,monospace" font-size="12.00">type?</text>
</g>
<!-- node1&#45;&gt;node3 -->
<g id="edge3" class="edge">
<title>node1&#45;&gt;node3</title>
<path fill="none" stroke="black" d="M99,-42.99C99,-38.09 99,-32.01 99,-26.5"/>
<polygon fill="black" stroke="black" points="100.75,-26.24 99,-21.24 97.25,-26.24 100.75,-26.24"/>
</g>
<!-- node5 -->
<g id="node6" class="node">
<title>node5</title>
<polygon fill="none" stroke="black" points="198,-21 144,-21 144,0 198,0 198,-21"/>
<text text-anchor="middle" x="171" y="-7.4" font-family="Courier,monospace" font-size="12.00">b</text>
</g>
<!-- node4&#45;&gt;node5 -->
<g id="edge5" class="edge">
<title>node4&#45;&gt;node5</title>
<path fill="none" stroke="black" d="M198.65,-42.99C193.99,-37.69 188.11,-30.99 182.97,-25.13"/>
<polygon fill="black" stroke="black" points="184.17,-23.84 179.55,-21.24 181.54,-26.15 184.17,-23.84"/>
</g>
<!-- node6 -->
<g id="node7" class="node">
<title>node6</title>
<polygon fill="none" stroke="black" points="270,-21 216,-21 216,0 270,0 270,-21"/>
<text text-anchor="middle" x="243" y="-7.4" font-family="Courier,monospace" font-size="12.00">type?</text>
</g>
<!-- node4&#45;&gt;node6 -->
<g id="edge6" class="edge">
<title>node4&#45;&gt;node6</title>
<path fill="none" stroke="black" d="M215.35,-42.99C220.01,-37.69 225.89,-30.99 231.03,-25.13"/>
<polygon fill="black" stroke="black" points="232.46,-26.15 234.45,-21.24 229.83,-23.84 232.46,-26.15"/>
</g>
<!-- node8 -->
<g id="node9" class="node">
<title>node8</title>
<polygon fill="none" stroke="black" points="342,-21 288,-21 288,0 342,0 342,-21"/>
<text text-anchor="middle" x="315" y="-7.4" font-family="Courier,monospace" font-size="12.00">c</text>
</g>
<!-- node7&#45;&gt;node8 -->
<g id="edge8" class="edge">
<title>node7&#45;&gt;node8</title>
<path fill="none" stroke="black" d="M315,-42.99C315,-38.09 315,-32.01 315,-26.5"/>
<polygon fill="black" stroke="black" points="316.75,-26.24 315,-21.24 313.25,-26.24 316.75,-26.24"/>
</g>
<!-- node9 -->
<g id="node10" class="node">
<title>node9</title>
<polygon fill="none" stroke="black" points="414,-21 360,-21 360,0 414,0 414,-21"/>
<text text-anchor="middle" x="387" y="-7.4" font-family="Courier,monospace" font-size="12.00">type?</text>
</g>
<!-- node7&#45;&gt;node9 -->
<g id="edge9" class="edge">
<title>node7&#45;&gt;node9</title>
<path fill="none" stroke="black" d="M331.7,-42.99C341.73,-37.28 354.6,-29.95 365.4,-23.8"/>
<polygon fill="black" stroke="black" points="366.41,-25.24 369.89,-21.24 364.68,-22.2 366.41,-25.24"/>
</g>
</g>
</svg>
