<?xml version="1.0" encoding="UTF-8" standalone="no"?>
<!DOCTYPE svg PUBLIC "-//W3C//DTD SVG 1.1//EN"
 "http://www.w3.org/Graphics/SVG/1.1/DTD/svg11.dtd">
<!-- Generated by graphviz version 2.43.0 (0)
 -->
<!-- Title: astgraph Pages: 1 -->
<svg width="374pt" height="416pt"
 viewBox="0.00 0.00 374.00 416.00" xmlns="http://www.w3.org/2000/svg" xmlns:xlink="http://www.w3.org/1999/xlink">
<g id="graph0" class="graph" transform="scale(1 1) rotate(0) translate(4 412)">
<title>astgraph</title>
<polygon fill="white" stroke="transparent" points="-4,4 -4,-412 370,-412 370,4 -4,4"/>
<!-- node0 -->
<g id="node1" class="node">
<title>node0</title>
<polygon fill="none" stroke="black" points="229.5,-408 160.5,-408 160.5,-387 229.5,-387 229.5,-408"/>
<text text-anchor="middle" x="195" y="-394.4" font-family="Courier,monospace" font-size="12.00">Program</text>
</g>
<!-- node1 -->
<g id="node2" class="node">
<title>node1</title>
<polygon fill="none" stroke="black" points="226,-356 164,-356 164,-335 226,-335 226,-356"/>
<text text-anchor="middle" x="195" y="-342.4" font-family="Courier,monospace" font-size="12.00">@ main</text>
</g>
<!-- node0&#45;&gt;node1 -->
<g id="edge1" class="edge">
<title>node0&#45;&gt;node1</title>
<path fill="none" stroke="black" d="M195,-386.86C195,-378.01 195,-364.96 195,-356.11"/>
</g>
<!-- node2 -->
<g id="node3" class="node">
<title>node2</title>
<polygon fill="none" stroke="black" points="214,-304 152,-304 152,-270 214,-270 214,-304"/>
<text text-anchor="middle" x="183" y="-290.4" font-family="Courier,monospace" font-size="12.00">%0 i32</text>
<text text-anchor="middle" x="183" y="-277.4" font-family="Courier,monospace" font-size="12.00">~ i32</text>
</g>
<!-- node1&#45;&gt;node2 -->
<g id="edge2" class="edge">
<title>node1&#45;&gt;node2</title>
<path fill="none" stroke="black" d="M192.96,-334.92C191.17,-326.48 188.53,-314.02 186.41,-304.06"/>
</g>
<!-- node3 -->
<g id="node4" class="node">
<title>node3</title>
<polygon fill="none" stroke="black" points="286,-297.5 232,-297.5 232,-276.5 286,-276.5 286,-297.5"/>
<text text-anchor="middle" x="259" y="-283.9" font-family="Courier,monospace" font-size="12.00">{}</text>
</g>
<!-- node1&#45;&gt;node3 -->
<g id="edge3" class="edge">
<title>node1&#45;&gt;node3</title>
<path fill="none" stroke="black" d="M205.86,-334.92C217.55,-324.59 236.07,-308.24 247.87,-297.82"/>
</g>
<!-- node4 -->
<g id="node5" class="node">
<title>node4</title>
<polygon fill="none" stroke="black" points="286,-239 232,-239 232,-218 286,-218 286,-239"/>
<text text-anchor="middle" x="259" y="-225.4" font-family="Courier,monospace" font-size="12.00">(;;)</text>
</g>
<!-- node3&#45;&gt;node4 -->
<g id="edge4" class="edge">
<title>node3&#45;&gt;node4</title>
<path fill="none" stroke="black" d="M259,-276.42C259,-266.09 259,-249.74 259,-239.32"/>
</g>
<!-- node5 -->
<g id="node6" class="node">
<title>node5</title>
</g>
<!-- node4&#45;&gt;node5 -->
<g id="edge5" class="edge">
<title>node4&#45;&gt;node5</title>
<path fill="none" stroke="black" d="M254.76,-217.86C248.57,-203.78 237.71,-179.1 237.03,-177.57"/>
</g>
<!-- node15 -->
<g id="node16" class="node">
<title>node15</title>
<polygon fill="none" stroke="black" points="341,-187 287,-187 287,-166 341,-166 341,-187"/>
<text text-anchor="middle" x="314" y="-173.4" font-family="Courier,monospace" font-size="12.00">f ()</text>
</g>
<!-- node4&#45;&gt;node15 -->
<g id="edge15" class="edge">
<title>node4&#45;&gt;node15</title>
<path fill="none" stroke="black" d="M269.6,-217.86C279.34,-209.01 293.7,-195.96 303.43,-187.11"/>
</g>
<!-- node6 -->
<g id="node7" class="node">
<title>node6</title>
<polygon fill="none" stroke="black" points="126,-125 72,-125 72,-104 126,-104 126,-125"/>
<text text-anchor="middle" x="99" y="-111.4" font-family="Courier,monospace" font-size="12.00">% i</text>
</g>
<!-- node5&#45;&gt;node6 -->
<g id="edge6" class="edge">
<title>node5&#45;&gt;node6</title>
<path fill="none" stroke="black" d="M236.9,-175.46C233.79,-174.1 158.95,-141.56 120.85,-125"/>
<text text-anchor="middle" x="193.5" y="-143" font-family="Courier,monospace" font-size="10.00">init</text>
</g>
<!-- node9 -->
<g id="node10" class="node">
<title>node9</title>
<polygon fill="none" stroke="black" points="222,-125 168,-125 168,-104 222,-104 222,-125"/>
<text text-anchor="middle" x="195" y="-111.4" font-family="Courier,monospace" font-size="12.00">&lt;</text>
</g>
<!-- node5&#45;&gt;node9 -->
<g id="edge9" class="edge">
<title>node5&#45;&gt;node9</title>
<path fill="none" stroke="black" d="M236.97,-175.46C236.03,-174.11 213.36,-141.73 201.74,-125.13"/>
<text text-anchor="middle" x="232.5" y="-143" font-family="Courier,monospace" font-size="10.00">cond</text>
</g>
<!-- node12 -->
<g id="node13" class="node">
<title>node12</title>
<polygon fill="none" stroke="black" points="294,-125 240,-125 240,-104 294,-104 294,-125"/>
<text text-anchor="middle" x="267" y="-111.4" font-family="Courier,monospace" font-size="12.00">= i</text>
</g>
<!-- node5&#45;&gt;node12 -->
<g id="edge12" class="edge">
<title>node5&#45;&gt;node12</title>
<path fill="none" stroke="black" d="M237.02,-175.46C237.7,-174.11 253.88,-141.73 262.18,-125.13"/>
<text text-anchor="middle" x="266.5" y="-143" font-family="Courier,monospace" font-size="10.00">incr</text>
</g>
<!-- node7 -->
<g id="node8" class="node">
<title>node7</title>
<polygon fill="none" stroke="black" points="54,-73 0,-73 0,-52 54,-52 54,-73"/>
<text text-anchor="middle" x="27" y="-59.4" font-family="Courier,monospace" font-size="12.00">i32</text>
</g>
<!-- node6&#45;&gt;node7 -->
<g id="edge7" class="edge">
<title>node6&#45;&gt;node7</title>
<path fill="none" stroke="black" d="M85.12,-103.86C72.37,-95.01 53.58,-81.96 40.84,-73.11"/>
</g>
<!-- node8 -->
<g id="node9" class="node">
<title>node8</title>
<polygon fill="none" stroke="black" points="126,-73 72,-73 72,-52 126,-52 126,-73"/>
<text text-anchor="middle" x="99" y="-59.4" font-family="Courier,monospace" font-size="12.00">0</text>
</g>
<!-- node6&#45;&gt;node8 -->
<g id="edge8" class="edge">
<title>node6&#45;&gt;node8</title>
<path fill="none" stroke="black" d="M99,-103.86C99,-95.01 99,-81.96 99,-73.11"/>
</g>
<!-- node10 -->
<g id="node11" class="node">
<title>node10</title>
<polygon fill="none" stroke="black" points="198,-73 144,-73 144,-52 198,-52 198,-73"/>
<text text-anchor="middle" x="171" y="-59.4" font-family="Courier,monospace" font-size="12.00">$ i</text>
</g>
<!-- node9&#45;&gt;node10 -->
<g id="edge10" class="edge">
<title>node9&#45;&gt;node10</title>
<path fill="none" stroke="black" d="M190.37,-103.86C186.12,-95.01 179.86,-81.96 175.61,-73.11"/>
</g>
<!-- node11 -->
<g id="node12" class="node">
<title>node11</title>
<polygon fill="none" stroke="black" points="270,-73 216,-73 216,-52 270,-52 270,-73"/>
<text text-anchor="middle" x="243" y="-59.4" font-family="Courier,monospace" font-size="12.00">10</text>
</g>
<!-- node9&#45;&gt;node11 -->
<g id="edge11" class="edge">
<title>node9&#45;&gt;node11</title>
<path fill="none" stroke="black" d="M204.25,-103.86C212.75,-95.01 225.28,-81.96 233.77,-73.11"/>
</g>
<!-- node13 -->
<g id="node14" class="node">
<title>node13</title>
<polygon fill="none" stroke="black" points="342,-73 288,-73 288,-52 342,-52 342,-73"/>
<text text-anchor="middle" x="315" y="-59.4" font-family="Courier,monospace" font-size="12.00">++</text>
</g>
<!-- node12&#45;&gt;node13 -->
<g id="edge13" class="edge">
<title>node12&#45;&gt;node13</title>
<path fill="none" stroke="black" d="M276.25,-103.86C284.75,-95.01 297.28,-81.96 305.77,-73.11"/>
</g>
<!-- node14 -->
<g id="node15" class="node">
<title>node14</title>
<polygon fill="none" stroke="black" points="342,-21 288,-21 288,0 342,0 342,-21"/>
<text text-anchor="middle" x="315" y="-7.4" font-family="Courier,monospace" font-size="12.00">$ i</text>
</g>
<!-- node13&#45;&gt;node14 -->
<g id="edge14" class="edge">
<title>node13&#45;&gt;node14</title>
<path fill="none" stroke="black" d="M315,-51.86C315,-43.01 315,-29.96 315,-21.11"/>
</g>
<!-- node16 -->
<g id="node17" class="node">
<title>node16</title>
<polygon fill="none" stroke="black" points="366,-125 312,-125 312,-104 366,-104 366,-125"/>
<text text-anchor="middle" x="339" y="-111.4" font-family="Courier,monospace" font-size="12.00">1</text>
</g>
<!-- node15&#45;&gt;node16 -->
<g id="edge16" class="edge">
<title>node15&#45;&gt;node16</title>
<path fill="none" stroke="black" d="M318.02,-165.86C322.65,-154.73 330.24,-136.52 334.91,-125.32"/>
</g>
</g>
</svg>
