<?xml version="1.0" encoding="UTF-8" standalone="no"?>
<!DOCTYPE svg PUBLIC "-//W3C//DTD SVG 1.1//EN"
 "http://www.w3.org/Graphics/SVG/1.1/DTD/svg11.dtd">
<!-- Generated by graphviz version 2.43.0 (0)
 -->
<!-- Title: astgraph Pages: 1 -->
<svg width="306pt" height="128pt"
 viewBox="0.00 0.00 306.00 128.00" xmlns="http://www.w3.org/2000/svg" xmlns:xlink="http://www.w3.org/1999/xlink">
<g id="graph0" class="graph" transform="scale(1 1) rotate(0) translate(4 124)">
<title>astgraph</title>
<polygon fill="white" stroke="transparent" points="-4,4 -4,-124 302,-124 302,4 -4,4"/>
<!-- node0 -->
<g id="node1" class="node">
<title>node0</title>
<polygon fill="none" stroke="black" points="182.5,-120 113.5,-120 113.5,-99 182.5,-99 182.5,-120"/>
<text text-anchor="middle" x="148" y="-106.4" font-family="Courier,monospace" font-size="12.00">Program</text>
</g>
<!-- node1 -->
<g id="node2" class="node">
<title>node1</title>
<polygon fill="none" stroke="black" points="133.5,-77 34.5,-77 34.5,-56 133.5,-56 133.5,-77"/>
<text text-anchor="middle" x="84" y="-63.4" font-family="Courier,monospace" font-size="12.00">Declare &quot;a&quot;</text>
</g>
<!-- node0&#45;&gt;node1 -->
<g id="edge1" class="edge">
<title>node0&#45;&gt;node1</title>
<path fill="none" stroke="black" d="M133.16,-98.99C124.32,-93.33 113,-86.08 103.45,-79.96"/>
<polygon fill="black" stroke="black" points="104.36,-78.47 99.21,-77.24 102.47,-81.41 104.36,-78.47"/>
</g>
<!-- node4 -->
<g id="node5" class="node">
<title>node4</title>
<polygon fill="none" stroke="black" points="274,-77 152,-77 152,-56 274,-56 274,-77"/>
<text text-anchor="middle" x="213" y="-63.4" font-family="Courier,monospace" font-size="12.00">Declare &quot;char&quot;</text>
</g>
<!-- node0&#45;&gt;node4 -->
<g id="edge4" class="edge">
<title>node0&#45;&gt;node4</title>
<path fill="none" stroke="black" d="M163.08,-98.99C172.05,-93.33 183.55,-86.08 193.24,-79.96"/>
<polygon fill="black" stroke="black" points="194.26,-81.39 197.55,-77.24 192.39,-78.43 194.26,-81.39"/>
</g>
<!-- node2 -->
<g id="node3" class="node">
<title>node2</title>
<polygon fill="none" stroke="black" points="54,-27.5 0,-27.5 0,-6.5 54,-6.5 54,-27.5"/>
<text text-anchor="middle" x="27" y="-13.9" font-family="Courier,monospace" font-size="12.00">i32</text>
</g>
<!-- node1&#45;&gt;node2 -->
<g id="edge2" class="edge">
<title>node1&#45;&gt;node2</title>
<path fill="none" stroke="black" d="M72.47,-55.89C63.81,-48.68 51.88,-38.73 42.41,-30.84"/>
<polygon fill="black" stroke="black" points="43.48,-29.45 38.52,-27.6 41.24,-32.14 43.48,-29.45"/>
</g>
<!-- node3 -->
<g id="node4" class="node">
<title>node3</title>
<polygon fill="none" stroke="black" points="126,-34 72,-34 72,0 126,0 126,-34"/>
<text text-anchor="middle" x="99" y="-20.4" font-family="Courier,monospace" font-size="12.00">&quot;line</text>
<text text-anchor="middle" x="99" y="-7.4" font-family="Courier,monospace" font-size="12.00">line&quot;</text>
</g>
<!-- node1&#45;&gt;node3 -->
<g id="edge3" class="edge">
<title>node1&#45;&gt;node3</title>
<path fill="none" stroke="black" d="M87.04,-55.89C88.56,-51.06 90.47,-45 92.32,-39.16"/>
<polygon fill="black" stroke="black" points="94,-39.63 93.84,-34.33 90.67,-38.58 94,-39.63"/>
</g>
<!-- node5 -->
<g id="node6" class="node">
<title>node5</title>
<polygon fill="none" stroke="black" points="226,-27.5 172,-27.5 172,-6.5 226,-6.5 226,-27.5"/>
<text text-anchor="middle" x="199" y="-13.9" font-family="Courier,monospace" font-size="12.00">i8</text>
</g>
<!-- node4&#45;&gt;node5 -->
<g id="edge5" class="edge">
<title>node4&#45;&gt;node5</title>
<path fill="none" stroke="black" d="M210.17,-55.89C208.19,-49.19 205.53,-40.14 203.29,-32.56"/>
<polygon fill="black" stroke="black" points="204.92,-31.9 201.83,-27.6 201.56,-32.89 204.92,-31.9"/>
</g>
<!-- node6 -->
<g id="node7" class="node">
<title>node6</title>
<polygon fill="none" stroke="black" points="298,-27.5 244,-27.5 244,-6.5 298,-6.5 298,-27.5"/>
<text text-anchor="middle" x="271" y="-13.9" font-family="Courier,monospace" font-size="12.00">a</text>
</g>
<!-- node4&#45;&gt;node6 -->
<g id="edge6" class="edge">
<title>node4&#45;&gt;node6</title>
<path fill="none" stroke="black" d="M224.74,-55.89C233.54,-48.68 245.69,-38.73 255.32,-30.84"/>
<polygon fill="black" stroke="black" points="256.52,-32.12 259.28,-27.6 254.3,-29.41 256.52,-32.12"/>
</g>
</g>
</svg>
