<?xml version="1.0" encoding="UTF-8" standalone="no"?>
<!DOCTYPE svg PUBLIC "-//W3C//DTD SVG 1.1//EN"
 "http://www.w3.org/Graphics/SVG/1.1/DTD/svg11.dtd">
<!-- Generated by graphviz version 2.43.0 (0)
 -->
<!-- Title: astgraph Pages: 1 -->
<svg width="134pt" height="115pt"
 viewBox="0.00 0.00 134.00 115.00" xmlns="http://www.w3.org/2000/svg" xmlns:xlink="http://www.w3.org/1999/xlink">
<g id="graph0" class="graph" transform="scale(1 1) rotate(0) translate(4 111)">
<title>astgraph</title>
<polygon fill="white" stroke="transparent" points="-4,4 -4,-111 130,-111 130,4 -4,4"/>
<!-- node0 -->
<g id="node1" class="node">
<title>node0</title>
<text text-anchor="middle" x="63" y="-93.4" font-family="Courier,monospace" font-size="12.00">Program</text>
</g>
<!-- node1 -->
<g id="node2" class="node">
<title>node1</title>
<text text-anchor="middle" x="63" y="-50.4" font-family="Courier,monospace" font-size="12.00">Declare &quot;f&quot;</text>
</g>
<!-- node0&#45;&gt;node1 -->
<g id="edge1" class="edge">
<title>node0&#45;&gt;node1</title>
<path fill="none" stroke="black" d="M63,-85.99C63,-81.09 63,-75.01 63,-69.5"/>
<polygon fill="black" stroke="black" points="64.75,-69.24 63,-64.24 61.25,-69.24 64.75,-69.24"/>
</g>
<!-- node2 -->
<g id="node3" class="node">
<title>node2</title>
<text text-anchor="middle" x="27" y="-7.4" font-family="Courier,monospace" font-size="12.00">i8</text>
</g>
<!-- node1&#45;&gt;node2 -->
<g id="edge2" class="edge">
<title>node1&#45;&gt;node2</title>
<path fill="none" stroke="black" d="M54.65,-42.99C49.99,-37.69 44.11,-30.99 38.97,-25.13"/>
<polygon fill="black" stroke="black" points="40.17,-23.84 35.55,-21.24 37.54,-26.15 40.17,-23.84"/>
</g>
<!-- node3 -->
<g id="node4" class="node">
<title>node3</title>
<text text-anchor="middle" x="99" y="-7.4" font-family="Courier,monospace" font-size="12.00">Block</text>
</g>
<!-- node1&#45;&gt;node3 -->
<g id="edge3" class="edge">
<title>node1&#45;&gt;node3</title>
<path fill="none" stroke="black" d="M71.35,-42.99C76.01,-37.69 81.89,-30.99 87.03,-25.13"/>
<polygon fill="black" stroke="black" points="88.46,-26.15 90.45,-21.24 85.83,-23.84 88.46,-26.15"/>
</g>
</g>
</svg>
