<?xml version="1.0" encoding="UTF-8" standalone="no"?>
<!DOCTYPE svg PUBLIC "-//W3C//DTD SVG 1.1//EN"
 "http://www.w3.org/Graphics/SVG/1.1/DTD/svg11.dtd">
<!-- Generated by graphviz version 2.40.1 (20161225.0304)
 -->
<!-- Title: astgraph Pages: 1 -->
<svg width="224pt" height="115pt"
 viewBox="0.00 0.00 224.00 115.00" xmlns="http://www.w3.org/2000/svg" xmlns:xlink="http://www.w3.org/1999/xlink">
<g id="graph0" class="graph" transform="scale(1 1) rotate(0) translate(4 111)">
<title>astgraph</title>
<polygon fill="#ffffff" stroke="transparent" points="-4,4 -4,-111 220,-111 220,4 -4,4"/>
<!-- node0 -->
<g id="node1" class="node">
<title>node0</title>
<polygon fill="none" stroke="#000000" points="142,-107 73,-107 73,-86 142,-86 142,-107"/>
<text text-anchor="middle" x="107.5" y="-93.4" font-family="Courier,monospace" font-size="12.00" fill="#000000">Program</text>
</g>
<!-- node1 -->
<g id="node2" class="node">
<title>node1</title>
<polygon fill="none" stroke="#000000" points="99,-64 0,-64 0,-43 99,-43 99,-64"/>
<text text-anchor="middle" x="49.5" y="-50.4" font-family="Courier,monospace" font-size="12.00" fill="#000000">Declare &quot;a&quot;</text>
</g>
<!-- node0&#45;&gt;node1 -->
<g id="edge1" class="edge">
<title>node0&#45;&gt;node1</title>
<path fill="none" stroke="#000000" d="M93.1629,-85.8708C85.5774,-80.247 76.1755,-73.2766 68.0412,-67.2461"/>
<polygon fill="#000000" stroke="#000000" points="68.731,-65.579 63.6722,-64.0069 66.6465,-68.3906 68.731,-65.579"/>
</g>
<!-- node3 -->
<g id="node4" class="node">
<title>node3</title>
<polygon fill="none" stroke="#000000" points="216,-64 117,-64 117,-43 216,-43 216,-64"/>
<text text-anchor="middle" x="166.5" y="-50.4" font-family="Courier,monospace" font-size="12.00" fill="#000000">Declare &quot;b&quot;</text>
</g>
<!-- node0&#45;&gt;node3 -->
<g id="edge3" class="edge">
<title>node0&#45;&gt;node3</title>
<path fill="none" stroke="#000000" d="M122.0843,-85.8708C129.8006,-80.247 139.3646,-73.2766 147.6391,-67.2461"/>
<polygon fill="#000000" stroke="#000000" points="149.0735,-68.3662 152.0835,-64.0069 147.012,-65.5377 149.0735,-68.3662"/>
</g>
<!-- node2 -->
<g id="node3" class="node">
<title>node2</title>
<polygon fill="none" stroke="#000000" points="91.5,-21 7.5,-21 7.5,0 91.5,0 91.5,-21"/>
<text text-anchor="middle" x="49.5" y="-7.4" font-family="Courier,monospace" font-size="12.00" fill="#000000">type: i32</text>
</g>
<!-- node1&#45;&gt;node2 -->
<g id="edge2" class="edge">
<title>node1&#45;&gt;node2</title>
<path fill="none" stroke="#000000" d="M49.5,-42.6493C49.5,-37.7231 49.5,-31.7991 49.5,-26.3856"/>
<polygon fill="#000000" stroke="#000000" points="51.2501,-26.1983 49.5,-21.1983 47.7501,-26.1983 51.2501,-26.1983"/>
</g>
<!-- node4 -->
<g id="node5" class="node">
<title>node4</title>
<polygon fill="none" stroke="#000000" points="205,-21 128,-21 128,0 205,0 205,-21"/>
<text text-anchor="middle" x="166.5" y="-7.4" font-family="Courier,monospace" font-size="12.00" fill="#000000">type: i8</text>
</g>
<!-- node3&#45;&gt;node4 -->
<g id="edge4" class="edge">
<title>node3&#45;&gt;node4</title>
<path fill="none" stroke="#000000" d="M166.5,-42.6493C166.5,-37.7231 166.5,-31.7991 166.5,-26.3856"/>
<polygon fill="#000000" stroke="#000000" points="168.2501,-26.1983 166.5,-21.1983 164.7501,-26.1983 168.2501,-26.1983"/>
</g>
</g>
</svg>
