<?xml version="1.0" encoding="UTF-8" standalone="no"?>
<!DOCTYPE svg PUBLIC "-//W3C//DTD SVG 1.1//EN"
 "http://www.w3.org/Graphics/SVG/1.1/DTD/svg11.dtd">
<!-- Generated by graphviz version 2.43.0 (0)
 -->
<!-- Title: astgraph Pages: 1 -->
<svg width="300pt" height="287pt"
 viewBox="0.00 0.00 300.00 287.00" xmlns="http://www.w3.org/2000/svg" xmlns:xlink="http://www.w3.org/1999/xlink">
<g id="graph0" class="graph" transform="scale(1 1) rotate(0) translate(4 283)">
<title>astgraph</title>
<polygon fill="white" stroke="transparent" points="-4,4 -4,-283 296,-283 296,4 -4,4"/>
<!-- node0 -->
<g id="node1" class="node">
<title>node0</title>
<text text-anchor="middle" x="145" y="-265.4" font-family="Courier,monospace" font-size="12.00">Program</text>
</g>
<!-- node1 -->
<g id="node2" class="node">
<title>node1</title>
<text text-anchor="middle" x="87" y="-222.4" font-family="Courier,monospace" font-size="12.00">Declare &quot;f&quot;</text>
</g>
<!-- node0&#45;&gt;node1 -->
<g id="edge1" class="edge">
<title>node0&#45;&gt;node1</title>
<path fill="none" stroke="black" d="M131.55,-257.99C123.75,-252.48 113.84,-245.47 105.34,-239.46"/>
<polygon fill="black" stroke="black" points="105.88,-237.7 100.78,-236.24 103.85,-240.56 105.88,-237.7"/>
</g>
<!-- node11 -->
<g id="node12" class="node">
<title>node11</title>
<text text-anchor="middle" x="204" y="-222.4" font-family="Courier,monospace" font-size="12.00">Declare &quot;a&quot;</text>
</g>
<!-- node0&#45;&gt;node11 -->
<g id="edge11" class="edge">
<title>node0&#45;&gt;node11</title>
<path fill="none" stroke="black" d="M158.68,-257.99C166.76,-252.38 177.08,-245.21 185.83,-239.13"/>
<polygon fill="black" stroke="black" points="186.87,-240.53 189.98,-236.24 184.88,-237.66 186.87,-240.53"/>
</g>
<!-- node2 -->
<g id="node3" class="node">
<title>node2</title>
<text text-anchor="middle" x="27" y="-179.4" font-family="Courier,monospace" font-size="12.00">i8</text>
</g>
<!-- node1&#45;&gt;node2 -->
<g id="edge2" class="edge">
<title>node1&#45;&gt;node2</title>
<path fill="none" stroke="black" d="M73.08,-214.99C64.87,-209.38 54.38,-202.21 45.48,-196.13"/>
<polygon fill="black" stroke="black" points="46.37,-194.62 41.26,-193.24 44.4,-197.51 46.37,-194.62"/>
</g>
<!-- node3 -->
<g id="node4" class="node">
<title>node3</title>
<text text-anchor="middle" x="99" y="-179.4" font-family="Courier,monospace" font-size="12.00">Block</text>
</g>
<!-- node1&#45;&gt;node3 -->
<g id="edge3" class="edge">
<title>node1&#45;&gt;node3</title>
<path fill="none" stroke="black" d="M89.78,-214.99C91.25,-209.99 93.07,-203.76 94.71,-198.15"/>
<polygon fill="black" stroke="black" points="96.42,-198.53 96.15,-193.24 93.06,-197.55 96.42,-198.53"/>
</g>
<!-- node4 -->
<g id="node5" class="node">
<title>node4</title>
<text text-anchor="middle" x="99" y="-136.4" font-family="Courier,monospace" font-size="12.00">Declare &quot;a&quot;</text>
</g>
<!-- node3&#45;&gt;node4 -->
<g id="edge4" class="edge">
<title>node3&#45;&gt;node4</title>
<path fill="none" stroke="black" d="M99,-171.99C99,-167.09 99,-161.01 99,-155.5"/>
<polygon fill="black" stroke="black" points="100.75,-155.24 99,-150.24 97.25,-155.24 100.75,-155.24"/>
</g>
<!-- node5 -->
<g id="node6" class="node">
<title>node5</title>
<text text-anchor="middle" x="63" y="-93.4" font-family="Courier,monospace" font-size="12.00">i32</text>
</g>
<!-- node4&#45;&gt;node5 -->
<g id="edge5" class="edge">
<title>node4&#45;&gt;node5</title>
<path fill="none" stroke="black" d="M90.65,-128.99C85.99,-123.69 80.11,-116.99 74.97,-111.13"/>
<polygon fill="black" stroke="black" points="76.17,-109.84 71.55,-107.24 73.54,-112.15 76.17,-109.84"/>
</g>
<!-- node6 -->
<g id="node7" class="node">
<title>node6</title>
<text text-anchor="middle" x="135" y="-93.4" font-family="Courier,monospace" font-size="12.00">+</text>
</g>
<!-- node4&#45;&gt;node6 -->
<g id="edge6" class="edge">
<title>node4&#45;&gt;node6</title>
<path fill="none" stroke="black" d="M107.35,-128.99C112.01,-123.69 117.89,-116.99 123.03,-111.13"/>
<polygon fill="black" stroke="black" points="124.46,-112.15 126.45,-107.24 121.83,-109.84 124.46,-112.15"/>
</g>
<!-- node7 -->
<g id="node8" class="node">
<title>node7</title>
<text text-anchor="middle" x="99" y="-50.4" font-family="Courier,monospace" font-size="12.00">*</text>
</g>
<!-- node6&#45;&gt;node7 -->
<g id="edge7" class="edge">
<title>node6&#45;&gt;node7</title>
<path fill="none" stroke="black" d="M126.65,-85.99C121.99,-80.69 116.11,-73.99 110.97,-68.13"/>
<polygon fill="black" stroke="black" points="112.17,-66.84 107.55,-64.24 109.54,-69.15 112.17,-66.84"/>
</g>
<!-- node10 -->
<g id="node11" class="node">
<title>node10</title>
<text text-anchor="middle" x="171" y="-50.4" font-family="Courier,monospace" font-size="12.00">1.5</text>
</g>
<!-- node6&#45;&gt;node10 -->
<g id="edge10" class="edge">
<title>node6&#45;&gt;node10</title>
<path fill="none" stroke="black" d="M143.35,-85.99C148.01,-80.69 153.89,-73.99 159.03,-68.13"/>
<polygon fill="black" stroke="black" points="160.46,-69.15 162.45,-64.24 157.83,-66.84 160.46,-69.15"/>
</g>
<!-- node8 -->
<g id="node9" class="node">
<title>node8</title>
<text text-anchor="middle" x="63" y="-7.4" font-family="Courier,monospace" font-size="12.00">2</text>
</g>
<!-- node7&#45;&gt;node8 -->
<g id="edge8" class="edge">
<title>node7&#45;&gt;node8</title>
<path fill="none" stroke="black" d="M90.65,-42.99C85.99,-37.69 80.11,-30.99 74.97,-25.13"/>
<polygon fill="black" stroke="black" points="76.17,-23.84 71.55,-21.24 73.54,-26.15 76.17,-23.84"/>
</g>
<!-- node9 -->
<g id="node10" class="node">
<title>node9</title>
<text text-anchor="middle" x="135" y="-7.4" font-family="Courier,monospace" font-size="12.00">3</text>
</g>
<!-- node7&#45;&gt;node9 -->
<g id="edge9" class="edge">
<title>node7&#45;&gt;node9</title>
<path fill="none" stroke="black" d="M107.35,-42.99C112.01,-37.69 117.89,-30.99 123.03,-25.13"/>
<polygon fill="black" stroke="black" points="124.46,-26.15 126.45,-21.24 121.83,-23.84 124.46,-26.15"/>
</g>
<!-- node12 -->
<g id="node13" class="node">
<title>node12</title>
<text text-anchor="middle" x="193" y="-179.4" font-family="Courier,monospace" font-size="12.00">i8</text>
</g>
<!-- node11&#45;&gt;node12 -->
<g id="edge12" class="edge">
<title>node11&#45;&gt;node12</title>
<path fill="none" stroke="black" d="M201.45,-214.99C200.11,-209.99 198.43,-203.76 196.93,-198.15"/>
<polygon fill="black" stroke="black" points="198.6,-197.62 195.61,-193.24 195.22,-198.53 198.6,-197.62"/>
</g>
<!-- node13 -->
<g id="node14" class="node">
<title>node13</title>
<text text-anchor="middle" x="265" y="-179.4" font-family="Courier,monospace" font-size="12.00">123</text>
</g>
<!-- node11&#45;&gt;node13 -->
<g id="edge13" class="edge">
<title>node11&#45;&gt;node13</title>
<path fill="none" stroke="black" d="M218.15,-214.99C226.5,-209.38 237.16,-202.21 246.21,-196.13"/>
<polygon fill="black" stroke="black" points="247.33,-197.48 250.51,-193.24 245.38,-194.58 247.33,-197.48"/>
</g>
</g>
</svg>
